# xmcd CD database file
#
# Track frame offsets:
#	150
#	15045
#	29397
#	44054
#	54438
#	69072
#	87111
#	103735
#	120802
#	135861
#	149329
#	164773
#	180790
#	212644
#	226285
#	246224
#
# Disc length: 3856 seconds
#
# Revision: 0
# Processed by: cddbd v1.5.2PL0 Copyright (c) Steve Scherf et al.
# Submitted via: CDex 1.70beta2
#
DISCID=c20f0e10
DTITLE=MODERN JAZZ QUARTET - UNE ANTHOLOGIE 1952/1956 CD1
DYEAR=1900
DGENRE=Jazz
TTITLE0=ALL THE THINGS YOU ARE
TTITLE1=LA RONDE
TTITLE2=VENDOME
TTITLE3=ROSE OF THE RIO GRANDE
TTITLE4=THE QUEEN'S FANCY
TTITLE5=DELAUNAY'S DILEMNA
TTITLE6=AUTOMN IN NEW YORK
TTITLE7=BUT NOT FOR ME
TTITLE8=IN A SENTIMENTAL MOOD
TTITLE9=THE STOPPER
TTITLE10=ALMOST LIKE BEING IN LOVE
TTITLE11=NO MOE
TTITLE12=DJANGO
TTITLE13=ONE BASS HIT
TTITLE14=MILANO
TTITLE15=LA RONDE SUITE
EXTD=
EXTT0=
EXTT1=
EXTT2=
EXTT3=
EXTT4=
EXTT5=
EXTT6=
EXTT7=
EXTT8=
EXTT9=
EXTT10=
EXTT11=
EXTT12=
EXTT13=
EXTT14=
EXTT15=
PLAYORDER=
